# xmcd
# 
# Track frame offsets:
#     150
#     11606
#     23866
#     36202
#     45872
#     56016
#     67459
#     79627
#     91762
#     104064
#     120847
#     133932
#     146958
#     159945
#     170304
#     181780
# 
# Disc length: 2584
# 
# Revision: 2
# Processed by: cddbd v1.5.2PL0 Copyright (c) Steve Scherf et al.
# Submitted via: fre:ac v1.0.27
# 
DISCID=d00a1610
DTITLE=Various Artist - Only Country! CD1
DYEAR=2009
DGENRE=Country
TTITLE0=Patsy Cline - Walkin' After Midnight
TTITLE1=Johnny Cash - Walk The Line
TTITLE2=Lynn Anderson - Stand By Your Man
TTITLE3=Willie Nelson - Let's Pretend
TTITLE4=Loretta Lynn - You're Looking At Country
TTITLE5=Kenny Rogers - Me And Bobby McGee
TTITLE6=Hank Williams - Lost Highway
TTITLE7=Bob Wills and His Texas Playboys - Cotton Eyed Joe
TTITLE8=Patsy Montana - I Want To Be A Cowboys Sweetheart
TTITLE9=Townes van Zandt - If I Needed You
TTITLE10=Patti Page - Down The Trail Of Achin' Hearts
TTITLE11=Hank Williams - Jambalaya (On The Bayou)
TTITLE12=Donna Fargo - Daddy
TTITLE13=Waylon Jennings - Lorena
TTITLE14=Kitty Wells - Honky Tonk Waltz
TTITLE15=Roy Acuff - Blue Eyes Crying In The Rain
EXTD=
EXTT0=
EXTT1=
EXTT2=
EXTT3=
EXTT4=
EXTT5=
EXTT6=
EXTT7=
EXTT8=
EXTT9=
EXTT10=
EXTT11=
EXTT12=
EXTT13=
EXTT14=
EXTT15=
PLAYORDER=
